# xmcd
#
# Track frame offsets: 
#        150
#        14985
#        29021
#        43750
#        69794
#        113920
#        136581
#        155765
#        175351
#        192123
#
# Disc length: 2741 seconds
#
# Revision: 1
# Processed by: cddbd v1.5.2PL0 Copyright (c) Steve Scherf et al.
# Submitted via: ExactAudioCopy v0.99pb4
#
DISCID=8a0ab30a
DTITLE=Various Artist - Pulp Fusion - Fully Loaded [CD2]
DYEAR=2007
DGENRE=Funk
TTITLE0=Edwin Starr - Easin' in
TTITLE1=Gordon Staples - Strung Out
TTITLE2=The Fatback Band - Goin' To See My Baby
TTITLE3=Magnum - Evolution
TTITLE4=Frank Strazzeri - Cloudburst
TTITLE5=Pleasure - Let's Dance
TTITLE6=Candido - Candido's Funk
TTITLE7=Ahmad Jamal - Misdemeanor
TTITLE8=Kool and The Gang - Electric Frog Part 1
TTITLE9=Wood Brass And Steel - Theme Song
EXTD=
EXTT0=
EXTT1=
EXTT2=
EXTT3=
EXTT4=
EXTT5=
EXTT6=
EXTT7=
EXTT8=
EXTT9=
PLAYORDER=
